<?xml version="1.0" encoding="UTF-8" standalone="no"?>
<svg
   xmlns:dc="http://purl.org/dc/elements/1.1/"
   xmlns:cc="http://creativecommons.org/ns#"
   xmlns:rdf="http://www.w3.org/1999/02/22-rdf-syntax-ns#"
   xmlns:svg="http://www.w3.org/2000/svg"
   xmlns="http://www.w3.org/2000/svg"
   xmlns:sodipodi="http://sodipodi.sourceforge.net/DTD/sodipodi-0.dtd"
   xmlns:inkscape="http://www.inkscape.org/namespaces/inkscape"
   version="1.1"
   id="svg2"
   xml:space="preserve"
   width="1066.6667"
   height="1066.6667"
   viewBox="0 0 1066.6667 1066.6667"
   sodipodi:docname="database-4941302.ai"><metadata
     id="metadata8"><rdf:RDF><cc:Work
         rdf:about=""><dc:format>image/svg+xml</dc:format><dc:type
           rdf:resource="http://purl.org/dc/dcmitype/StillImage" /></cc:Work></rdf:RDF></metadata><defs
     id="defs6"><clipPath
       clipPathUnits="userSpaceOnUse"
       id="clipPath18"><path
         d="M 0,800 H 800 V 0 H 0 Z"
         id="path16" /></clipPath><clipPath
       clipPathUnits="userSpaceOnUse"
       id="clipPath30"><path
         d="M 400,800 C 179.086,800 0,620.914 0,400 v 0 C 0,179.086 179.086,0 400,0 v 0 c 220.914,0 400,179.086 400,400 v 0 c 0,220.914 -179.086,400 -400,400 z"
         id="path28" /></clipPath><clipPath
       clipPathUnits="userSpaceOnUse"
       id="clipPath38"><path
         d="M 8.06517,567.816 H 550.896 V 8.95416 H 8.06517 Z"
         id="path36" /></clipPath><clipPath
       clipPathUnits="userSpaceOnUse"
       id="clipPath42"><path
         d="m 281.49,8.954 258.375,258.375 c 7.284,7.009 11.031,14.76 11.031,23.08 v 73.061 73.06 73.061 c 0,17.423 -16.392,32.356 -47.404,43.186 -27.773,9.698 -64.527,15.039 -103.492,15.039 -38.965,0 -75.719,-5.341 -103.492,-15.039 -17.135,-5.984 -29.798,-13.223 -37.707,-21.44 L 8.065,280.602 C 31.763,127.63 122.687,36.879 281.49,8.954"
         id="path40" /></clipPath><linearGradient
       x1="0"
       y1="0"
       x2="1"
       y2="0"
       gradientUnits="userSpaceOnUse"
       gradientTransform="matrix(-241.45952,-241.45952,-241.45952,241.45952,409.33347,409.33319)"
       spreadMethod="pad"
       id="linearGradient52"><stop
         style="stop-opacity:1;stop-color:#ffffff"
         offset="0"
         id="stop48" /><stop
         style="stop-opacity:0;stop-color:#ffffff"
         offset="1"
         id="stop50" /></linearGradient><mask
       maskUnits="userSpaceOnUse"
       x="0"
       y="0"
       width="1"
       height="1"
       id="mask54"><g
         id="g64"><g
           id="g62"><g
             id="g60"><g
               id="g58"><path
                 d="M -32768,32767 H 32767 V -32768 H -32768 Z"
                 style="fill:url(#linearGradient52);stroke:none"
                 id="path56" /></g></g></g></g></mask><linearGradient
       x1="0"
       y1="0"
       x2="1"
       y2="0"
       gradientUnits="userSpaceOnUse"
       gradientTransform="matrix(-241.45952,-241.45952,-241.45952,241.45952,409.33347,409.33319)"
       spreadMethod="pad"
       id="linearGradient70"><stop
         style="stop-opacity:1;stop-color:#000000"
         offset="0"
         id="stop66" /><stop
         style="stop-opacity:1;stop-color:#000000"
         offset="1"
         id="stop68" /></linearGradient><clipPath
       clipPathUnits="userSpaceOnUse"
       id="clipPath96"><path
         d="M 0,800 H 800 V 0 H 0 Z"
         id="path94" /></clipPath></defs><sodipodi:namedview
     pagecolor="#ffffff"
     bordercolor="#666666"
     borderopacity="1"
     objecttolerance="10"
     gridtolerance="10"
     guidetolerance="10"
     inkscape:pageopacity="0"
     inkscape:pageshadow="2"
     inkscape:window-width="640"
     inkscape:window-height="480"
     id="namedview4" /><g
     id="g10"
     inkscape:groupmode="layer"
     inkscape:label="database-4941302"
     transform="matrix(1.3333333,0,0,-1.3333333,0,1066.6667)"><g
       id="g12"><g
         id="g14"
         clip-path="url(#clipPath18)"><g
           id="g20"
           transform="translate(800,400)"><path
             d="m 0,0 c 0,-220.914 -179.086,-400 -400,-400 -220.914,0 -400,179.086 -400,400 0,220.914 179.086,400 400,400 C -179.086,400 0,220.914 0,0"
             style="fill:#1c8adb;fill-opacity:1;fill-rule:nonzero;stroke:none"
             id="path22" /></g></g></g><g
       id="g24"><g
         id="g26"
         clip-path="url(#clipPath30)"><g
           id="g32"><g
             id="g34" /><g
             id="g88"><g
               clip-path="url(#clipPath38)"
               opacity="0.419998"
               id="g86"><g
                 id="g84"><g
                   clip-path="url(#clipPath42)"
                   id="g82"><g
                     id="g80"><g
                       id="g72" /><g
                       mask="url(#mask54)"
                       id="g78"><g
                         id="g76"><path
                           d="m 281.49,8.954 258.375,258.375 c 7.284,7.009 11.031,14.76 11.031,23.08 v 73.061 73.06 73.061 c 0,17.423 -16.392,32.356 -47.404,43.186 -27.773,9.698 -64.527,15.039 -103.492,15.039 -38.965,0 -75.719,-5.341 -103.492,-15.039 -17.135,-5.984 -29.798,-13.223 -37.707,-21.44 L 8.065,280.602 C 31.763,127.63 122.687,36.879 281.49,8.954"
                           style="fill:url(#linearGradient70);stroke:none"
                           id="path74" /></g></g></g></g></g></g></g></g></g></g><g
       id="g90"><g
         id="g92"
         clip-path="url(#clipPath96)"><g
           id="g98"
           transform="translate(312.6665,271.5352)"><path
             d="m 0,0 c -6.695,-23.241 -28.165,-39.983 -53.114,-39.983 -0.941,0 -1.886,0.024 -2.836,0.072 -30.457,1.546 -53.979,27.581 -52.434,58.037 1.497,29.51 25.978,52.506 55.215,52.506 0.937,0 1.876,-0.024 2.822,-0.071 16.179,-0.822 30.794,-8.48 40.589,-20.923 L -24.031,45.694 10.076,12.118 22.109,58.442 6.65,54.171 c -12.447,19.207 -33.079,31.196 -56.187,32.368 -1.227,0.063 -2.452,0.094 -3.668,0.094 -37.678,0.002 -69.228,-29.656 -71.158,-67.696 -1.992,-39.268 28.335,-72.835 67.602,-74.828 1.225,-0.061 2.44,-0.091 3.653,-0.091 32.235,0 60.002,21.709 68.556,51.807 0.137,0.483 0.269,0.968 0.396,1.455"
             style="fill:#ffffff;fill-opacity:1;fill-rule:nonzero;stroke:none"
             id="path100" /></g><g
           id="g102"
           transform="translate(400,468.3667)"><path
             d="m 0,0 c -82.958,0 -133.896,24.011 -133.896,41.225 0,17.213 50.938,41.224 133.896,41.224 82.958,0 133.896,-24.011 133.896,-41.224 C 133.896,24.011 82.958,0 0,0 M 133.896,-31.836 C 133.896,-49.05 82.958,-73.061 0,-73.061 c -82.958,0 -133.896,24.011 -133.896,41.225 v 44.973 c 7.65,-5.636 17.824,-10.705 30.404,-15.098 C -75.719,-11.659 -38.965,-17 0,-17 c 38.965,0 75.719,5.341 103.492,15.039 12.58,4.393 22.754,9.462 30.404,15.098 z M 103.492,84.41 C 75.719,94.108 38.965,99.449 0,99.449 c -38.965,0 -75.719,-5.341 -103.492,-15.039 -31.012,-10.829 -47.404,-25.763 -47.404,-43.185 V -31.836 -93.83 c 3.419,0.403 6.874,0.631 10.358,0.631 h 0.001 c 1.503,0 3.028,-0.039 4.528,-0.115 0.705,-0.036 1.409,-0.086 2.113,-0.139 v 33.529 c 7.65,-5.636 17.824,-10.704 30.404,-15.098 27.773,-9.698 64.527,-15.039 103.492,-15.039 38.965,0 75.719,5.341 103.492,15.039 12.58,4.394 22.754,9.462 30.404,15.098 v -44.973 c 0,-17.214 -50.938,-41.225 -133.896,-41.225 -17.839,0 -34.193,1.113 -48.883,3.027 l -4.29,-16.519 c 16.752,-2.294 34.707,-3.508 53.173,-3.508 38.965,0 75.719,5.341 103.492,15.039 12.58,4.394 22.754,9.462 30.404,15.098 v -44.973 c 0,-17.213 -50.938,-41.224 -133.896,-41.224 -21.898,0 -41.563,1.674 -58.65,4.453 -2.241,-5.514 -5.056,-10.782 -8.381,-15.749 20.52,-3.722 43.36,-5.704 67.031,-5.704 38.965,0 75.72,5.341 103.492,15.039 31.012,10.829 47.404,25.763 47.404,43.185 v 73.061 73.061 73.061 c 0,17.422 -16.392,32.356 -47.404,43.185"
             style="fill:#ffffff;fill-opacity:1;fill-rule:nonzero;stroke:none"
             id="path104" /></g></g></g></g></svg>
